<svg xmlns="http://www.w3.org/2000/svg" width="1400" height="1280" viewBox="0 0 1400 1280" font-family="'Segoe UI', system-ui, -apple-system, Arial, sans-serif">
  <defs>
    <linearGradient id="bg" x1="0%" y1="0%" x2="0%" y2="100%">
      <stop offset="0%" style="stop-color:#f8f9fc"/>
      <stop offset="100%" style="stop-color:#eef1f7"/>
    </linearGradient>
    <linearGradient id="g-pres" x1="0%" y1="0%" x2="0%" y2="100%">
      <stop offset="0%" style="stop-color:#f3e8ff"/>
      <stop offset="100%" style="stop-color:#e9d5ff"/>
    </linearGradient>
    <linearGradient id="g-engine" x1="0%" y1="0%" x2="0%" y2="100%">
      <stop offset="0%" style="stop-color:#e0f2fe"/>
      <stop offset="100%" style="stop-color:#bae6fd"/>
    </linearGradient>
    <linearGradient id="g-data" x1="0%" y1="0%" x2="0%" y2="100%">
      <stop offset="0%" style="stop-color:#fff7ed"/>
      <stop offset="100%" style="stop-color:#fed7aa"/>
    </linearGradient>
    <linearGradient id="g-svc" x1="0%" y1="0%" x2="0%" y2="100%">
      <stop offset="0%" style="stop-color:#fce7f3"/>
      <stop offset="100%" style="stop-color:#fbcfe8"/>
    </linearGradient>
    <linearGradient id="g-vm" x1="0%" y1="0%" x2="0%" y2="100%">
      <stop offset="0%" style="stop-color:#e0f7fa"/>
      <stop offset="100%" style="stop-color:#b2ebf2"/>
    </linearGradient>
    <linearGradient id="g-util" x1="0%" y1="0%" x2="0%" y2="100%">
      <stop offset="0%" style="stop-color:#ecfdf5"/>
      <stop offset="100%" style="stop-color:#d1fae5"/>
    </linearGradient>
    <linearGradient id="g-core" x1="0%" y1="0%" x2="100%" y2="100%">
      <stop offset="0%" style="stop-color:#1e40af"/>
      <stop offset="100%" style="stop-color:#3b82f6"/>
    </linearGradient>
    <linearGradient id="g-title" x1="0%" y1="0%" x2="100%" y2="0%">
      <stop offset="0%" style="stop-color:#1e293b"/>
      <stop offset="100%" style="stop-color:#334155"/>
    </linearGradient>
    <filter id="shadow" x="-2%" y="-2%" width="106%" height="112%">
      <feDropShadow dx="0" dy="2" stdDeviation="3" flood-opacity="0.10"/>
    </filter>
    <filter id="shadow-sm" x="-2%" y="-2%" width="106%" height="112%">
      <feDropShadow dx="0" dy="1" stdDeviation="1.5" flood-opacity="0.08"/>
    </filter>
    <marker id="arr" markerWidth="8" markerHeight="6" refX="8" refY="3" orient="auto">
      <path d="M0,0 L8,3 L0,6" fill="none" stroke="#64748b" stroke-width="1.5"/>
    </marker>
    <marker id="arr-blue" markerWidth="8" markerHeight="6" refX="8" refY="3" orient="auto">
      <path d="M0,0 L8,3 L0,6" fill="none" stroke="#3b82f6" stroke-width="1.5"/>
    </marker>
    <marker id="arr-purple" markerWidth="8" markerHeight="6" refX="8" refY="3" orient="auto">
      <path d="M0,0 L8,3 L0,6" fill="none" stroke="#8b5cf6" stroke-width="1.5"/>
    </marker>
  </defs>

  <!-- Background -->
  <rect width="1400" height="1280" fill="url(#bg)" rx="0"/>

  <!-- ==================== TITLE ==================== -->
  <rect x="20" y="12" width="1360" height="46" rx="8" fill="url(#g-title)" filter="url(#shadow)"/>
  <text x="700" y="42" text-anchor="middle" fill="#ffffff" font-size="20" font-weight="700" letter-spacing="1">AIRCRAFT — Project Architecture</text>
  <text x="1360" y="42" text-anchor="end" fill="#94a3b8" font-size="11">Android 2D Vertical Shooter · Kotlin · SurfaceView Engine</text>

  <!-- ==================== PRESENTATION LAYER ==================== -->
  <rect x="20" y="72" width="1360" height="260" rx="10" fill="url(#g-pres)" stroke="#c084fc" stroke-width="1" filter="url(#shadow)" opacity="0.95"/>
  <text x="36" y="92" fill="#7c3aed" font-size="13" font-weight="700">PRESENTATION LAYER</text>
  <text x="220" y="92" fill="#a78bfa" font-size="10">gui/</text>

  <!-- ── First-Launch Gate Chain ── -->
  <text x="40" y="112" fill="#6b21a8" font-size="9" font-weight="600">FIRST-LAUNCH GATE CHAIN</text>

  <!-- PrivacyPolicyAcceptActivity -->
  <rect x="40" y="118" width="210" height="80" rx="8" fill="#ffffff" stroke="#a78bfa" stroke-width="1.5" filter="url(#shadow-sm)"/>
  <rect x="40" y="118" width="210" height="22" rx="8" fill="#7c3aed"/>
  <rect x="40" y="132" width="210" height="8" fill="#7c3aed"/>
  <text x="145" y="134" text-anchor="middle" fill="#ffffff" font-size="10" font-weight="600">PrivacyPolicyAcceptActivity</text>
  <text x="145" y="155" text-anchor="middle" fill="#6b21a8" font-size="9" font-weight="600">★ LAUNCHER · ENTRY POINT</text>
  <text x="145" y="170" text-anchor="middle" fill="#7c3aed" font-size="8.5">Cinematic WebView + StarField</text>
  <text x="145" y="183" text-anchor="middle" fill="#7c3aed" font-size="8.5">Accept/Reject gate (SharedPrefs)</text>

  <!-- OnboardingActivity -->
  <rect x="290" y="118" width="210" height="80" rx="8" fill="#ffffff" stroke="#a78bfa" stroke-width="1.5" filter="url(#shadow-sm)"/>
  <rect x="290" y="118" width="210" height="22" rx="8" fill="#9333ea"/>
  <rect x="290" y="132" width="210" height="8" fill="#9333ea"/>
  <text x="395" y="134" text-anchor="middle" fill="#ffffff" font-size="10" font-weight="600">OnboardingActivity</text>
  <text x="395" y="155" text-anchor="middle" fill="#6b21a8" font-size="9" font-weight="600">PILOT TRAINING</text>
  <text x="395" y="170" text-anchor="middle" fill="#7c3aed" font-size="8.5">Compose HorizontalPager (2 pages)</text>
  <text x="395" y="183" text-anchor="middle" fill="#7c3aed" font-size="8.5">Animated entrance effects</text>

  <!-- StarFieldView -->
  <rect x="540" y="118" width="180" height="80" rx="8" fill="#ffffff" stroke="#a78bfa" stroke-width="1.5" filter="url(#shadow-sm)"/>
  <rect x="540" y="118" width="180" height="22" rx="8" fill="#a855f7"/>
  <rect x="540" y="132" width="180" height="8" fill="#a855f7"/>
  <text x="630" y="134" text-anchor="middle" fill="#ffffff" font-size="10" font-weight="600">StarFieldView</text>
  <text x="630" y="155" text-anchor="middle" fill="#6b21a8" font-size="9" font-weight="600">CINEMATIC BG</text>
  <text x="630" y="170" text-anchor="middle" fill="#7c3aed" font-size="8.5">65-star parallax animation</text>
  <text x="630" y="183" text-anchor="middle" fill="#7c3aed" font-size="8.5">Custom View · ~20 FPS</text>

  <!-- First-launch navigation arrows -->
  <line x1="250" y1="158" x2="288" y2="158" stroke="#8b5cf6" stroke-width="1.5" marker-end="url(#arr-purple)"/>
  <text x="259" y="153" fill="#8b5cf6" font-size="7">accept</text>

  <!-- PrivacyPolicyAcceptActivity uses StarFieldView -->
  <path d="M250,175 L265,175 L265,148 L538,148" stroke="#8b5cf6" stroke-width="1" stroke-dasharray="4,3" fill="none" marker-end="url(#arr-purple)"/>
  <!-- OnboardingActivity uses StarFieldView -->
  <line x1="500" y1="148" x2="538" y2="148" stroke="#8b5cf6" stroke-width="1" stroke-dasharray="4,3" marker-end="url(#arr-purple)"/>
  <text x="508" y="143" fill="#8b5cf6" font-size="7">uses</text>

  <!-- ── Main Activities ── -->
  <text x="40" y="218" fill="#6b21a8" font-size="9" font-weight="600">MAIN ACTIVITIES</text>

  <!-- LaunchActivity -->
  <rect x="40" y="224" width="180" height="80" rx="8" fill="#ffffff" stroke="#a78bfa" stroke-width="1.5" filter="url(#shadow-sm)"/>
  <rect x="40" y="224" width="180" height="22" rx="8" fill="#8b5cf6"/>
  <rect x="40" y="238" width="180" height="8" fill="#8b5cf6"/>
  <text x="130" y="240" text-anchor="middle" fill="#ffffff" font-size="11" font-weight="600">LaunchActivity</text>
  <text x="130" y="260" text-anchor="middle" fill="#6b21a8" font-size="9" font-weight="600">MAIN MENU</text>
  <text x="130" y="275" text-anchor="middle" fill="#7c3aed" font-size="9">Start / History / Settings</text>
  <text x="130" y="290" text-anchor="middle" fill="#7c3aed" font-size="9">Jet Selection · Saved Progress</text>

  <!-- MainActivity -->
  <rect x="280" y="224" width="180" height="80" rx="8" fill="#ffffff" stroke="#a78bfa" stroke-width="1.5" filter="url(#shadow-sm)"/>
  <rect x="280" y="224" width="180" height="22" rx="8" fill="#7c3aed"/>
  <rect x="280" y="238" width="180" height="8" fill="#7c3aed"/>
  <text x="370" y="240" text-anchor="middle" fill="#ffffff" font-size="11" font-weight="600">MainActivity</text>
  <text x="370" y="260" text-anchor="middle" fill="#6b21a8" font-size="9" font-weight="600">GAME HOST</text>
  <text x="370" y="275" text-anchor="middle" fill="#7c3aed" font-size="8.7">Tactical shell + GameCoreView</text>
  <text x="370" y="290" text-anchor="middle" fill="#7c3aed" font-size="8.7">Briefing card · Pause overlay · MusicService</text>

  <!-- HistoryActivity -->
  <rect x="520" y="224" width="180" height="80" rx="8" fill="#ffffff" stroke="#a78bfa" stroke-width="1.5" filter="url(#shadow-sm)"/>
  <rect x="520" y="224" width="180" height="22" rx="8" fill="#9333ea"/>
  <rect x="520" y="238" width="180" height="8" fill="#9333ea"/>
  <text x="610" y="240" text-anchor="middle" fill="#ffffff" font-size="11" font-weight="600">HistoryActivity</text>
  <text x="610" y="260" text-anchor="middle" fill="#6b21a8" font-size="9" font-weight="600">LEADERBOARD</text>
  <text x="610" y="275" text-anchor="middle" fill="#7c3aed" font-size="9">HistoryFragment + Adapter</text>
  <text x="610" y="290" text-anchor="middle" fill="#7c3aed" font-size="9">RecyclerView list</text>

  <!-- SettingsActivity -->
  <rect x="760" y="224" width="180" height="80" rx="8" fill="#ffffff" stroke="#a78bfa" stroke-width="1.5" filter="url(#shadow-sm)"/>
  <rect x="760" y="224" width="180" height="22" rx="8" fill="#9333ea"/>
  <rect x="760" y="238" width="180" height="8" fill="#9333ea"/>
  <text x="850" y="240" text-anchor="middle" fill="#ffffff" font-size="11" font-weight="600">SettingsActivity</text>
  <text x="850" y="260" text-anchor="middle" fill="#6b21a8" font-size="9" font-weight="600">PREFERENCES</text>
  <text x="850" y="275" text-anchor="middle" fill="#7c3aed" font-size="9">Difficulty · Sound · QR / About Links</text>
  <text x="850" y="290" text-anchor="middle" fill="#7c3aed" font-size="9">Debug row in DEBUG builds</text>

  <!-- PrivacyPolicyActivity -->
  <rect x="1000" y="224" width="180" height="80" rx="8" fill="#ffffff" stroke="#a78bfa" stroke-width="1.5" filter="url(#shadow-sm)"/>
  <rect x="1000" y="224" width="180" height="22" rx="8" fill="#a855f7"/>
  <rect x="1000" y="238" width="180" height="8" fill="#a855f7"/>
  <text x="1090" y="240" text-anchor="middle" fill="#ffffff" font-size="11" font-weight="600">PrivacyPolicyActivity</text>
  <text x="1090" y="265" text-anchor="middle" fill="#7c3aed" font-size="9">WebView</text>
  <text x="1090" y="280" text-anchor="middle" fill="#7c3aed" font-size="9">Privacy policy page</text>

  <!-- QRCodeToolActivity -->
  <rect x="1000" y="300" width="180" height="92" rx="8" fill="#ffffff" stroke="#a78bfa" stroke-width="1.5" filter="url(#shadow-sm)" opacity="0.95"/>
  <rect x="1000" y="300" width="180" height="22" rx="8" fill="#c084fc"/>
  <rect x="1000" y="314" width="180" height="8" fill="#c084fc"/>
  <text x="1090" y="316" text-anchor="middle" fill="#ffffff" font-size="10" font-weight="600">QRCodeToolActivity</text>
  <text x="1090" y="336" text-anchor="middle" fill="#6b21a8" font-size="8.5" font-weight="600">SCAN + GENERATE + SAVE</text>
  <text x="1090" y="351" text-anchor="middle" fill="#7c3aed" font-size="8.5">Camera2 + ZXing + gallery import</text>
  <text x="1090" y="365" text-anchor="middle" fill="#7c3aed" font-size="8.5">Save to device (CreateDocument)</text>
  <text x="1090" y="379" text-anchor="middle" fill="#7c3aed" font-size="8.5">BottomSheet result + Copy button</text>

  <!-- Utility screens summary -->
  <rect x="1190" y="224" width="170" height="110" rx="8" fill="#ffffff" stroke="#a78bfa" stroke-width="1.5" filter="url(#shadow-sm)"/>
  <rect x="1190" y="224" width="170" height="22" rx="8" fill="#c084fc"/>
  <rect x="1190" y="238" width="170" height="8" fill="#c084fc"/>
  <text x="1275" y="240" text-anchor="middle" fill="#ffffff" font-size="10" font-weight="600">Utility Screens</text>
  <text x="1275" y="260" text-anchor="middle" fill="#6b21a8" font-size="9" font-weight="600">SETTINGS DESTINATIONS</text>
  <text x="1275" y="275" text-anchor="middle" fill="#7c3aed" font-size="7.8">QR Code Tool (scan/generate/save)</text>
  <text x="1275" y="289" text-anchor="middle" fill="#7c3aed" font-size="7.8">Device Info · About Aircraft · About Me (Coil)</text>
  <text x="1275" y="303" text-anchor="middle" fill="#7c3aed" font-size="7.8">Privacy Policy · Develop settings</text>
  <text x="1275" y="317" text-anchor="middle" fill="#7c3aed" font-size="7.8">Rich Text Editor (DEBUG only)</text>

  <!-- OnboardingActivity → LaunchActivity arrow -->
  <path d="M395,198 L395,208 L130,208 L130,222" stroke="#8b5cf6" stroke-width="1.5" fill="none" marker-end="url(#arr-purple)"/>
  <text x="260" y="206" fill="#8b5cf6" font-size="7">launch</text>

  <!-- Activity navigation arrows (LaunchActivity → others) -->
  <line x1="220" y1="260" x2="278" y2="260" stroke="#8b5cf6" stroke-width="1.5" marker-end="url(#arr-purple)"/>

  <path d="M220,275 L240,275 L240,310 L520,310 L520,302" stroke="#8b5cf6" stroke-width="1" stroke-dasharray="4,3" fill="none" marker-end="url(#arr-purple)"/>

  <path d="M220,287 L235,287 L235,315 L760,315 L760,302" stroke="#8b5cf6" stroke-width="1" stroke-dasharray="4,3" fill="none" marker-end="url(#arr-purple)"/>

  <line x1="940" y1="264" x2="998" y2="264" stroke="#8b5cf6" stroke-width="1" stroke-dasharray="4,3" marker-end="url(#arr-purple)"/>
  <line x1="940" y1="325" x2="998" y2="325" stroke="#8b5cf6" stroke-width="1" stroke-dasharray="4,3" marker-end="url(#arr-purple)"/>
  <line x1="940" y1="286" x2="1188" y2="286" stroke="#8b5cf6" stroke-width="1" stroke-dasharray="4,3" marker-end="url(#arr-purple)"/>
  <text x="953" y="320" fill="#8b5cf6" font-size="7">qr</text>

  <!-- ==================== VIEWMODEL LAYER ==================== -->
  <rect x="20" y="346" width="1360" height="100" rx="10" fill="url(#g-vm)" stroke="#00897b" stroke-width="1" filter="url(#shadow)" opacity="0.95"/>
  <text x="36" y="366" fill="#00695c" font-size="13" font-weight="700">VIEWMODEL LAYER</text>
  <text x="220" y="366" fill="#4db6ac" font-size="10">viewmodel/ — MVVM mediation (View → ViewModel → Repository)</text>

  <rect x="40" y="376" width="130" height="56" rx="7" fill="#ffffff" stroke="#00897b" stroke-width="1.2" filter="url(#shadow-sm)"/>
  <rect x="40" y="376" width="130" height="19" rx="7" fill="#00897b"/>
  <rect x="40" y="388" width="130" height="7" fill="#00897b"/>
  <text x="105" y="390" text-anchor="middle" fill="#ffffff" font-size="9" font-weight="600">GameViewModel</text>
  <text x="105" y="410" text-anchor="middle" fill="#00695c" font-size="8">DAO + SettingsRepo</text>
  <text x="105" y="424" text-anchor="middle" fill="#00695c" font-size="8">save/load game</text>

  <rect x="185" y="376" width="130" height="56" rx="7" fill="#ffffff" stroke="#00897b" stroke-width="1.2" filter="url(#shadow-sm)"/>
  <rect x="185" y="376" width="130" height="19" rx="7" fill="#00897b"/>
  <rect x="185" y="388" width="130" height="7" fill="#00897b"/>
  <text x="250" y="390" text-anchor="middle" fill="#ffffff" font-size="9" font-weight="600">SettingsViewModel</text>
  <text x="250" y="410" text-anchor="middle" fill="#00695c" font-size="8">SettingsRepository</text>
  <text x="250" y="424" text-anchor="middle" fill="#00695c" font-size="8">difficulty + toggles</text>

  <rect x="330" y="376" width="130" height="56" rx="7" fill="#ffffff" stroke="#00897b" stroke-width="1.2" filter="url(#shadow-sm)"/>
  <rect x="330" y="376" width="130" height="19" rx="7" fill="#00897b"/>
  <rect x="330" y="388" width="130" height="7" fill="#00897b"/>
  <text x="395" y="390" text-anchor="middle" fill="#ffffff" font-size="9" font-weight="600">LaunchViewModel</text>
  <text x="395" y="410" text-anchor="middle" fill="#00695c" font-size="8">DAO + SettingsRepo</text>
  <text x="395" y="424" text-anchor="middle" fill="#00695c" font-size="8">saved game check</text>

  <rect x="475" y="376" width="130" height="56" rx="7" fill="#ffffff" stroke="#00897b" stroke-width="1.2" filter="url(#shadow-sm)"/>
  <rect x="475" y="376" width="130" height="19" rx="7" fill="#00897b"/>
  <rect x="475" y="388" width="130" height="7" fill="#00897b"/>
  <text x="540" y="390" text-anchor="middle" fill="#ffffff" font-size="9" font-weight="600">HistoryViewModel</text>
  <text x="540" y="410" text-anchor="middle" fill="#00695c" font-size="8">PlayerGameDataDao</text>
  <text x="540" y="424" text-anchor="middle" fill="#00695c" font-size="8">leaderboard data</text>

  <rect x="620" y="376" width="145" height="56" rx="7" fill="#ffffff" stroke="#00897b" stroke-width="1.2" filter="url(#shadow-sm)"/>
  <rect x="620" y="376" width="145" height="19" rx="7" fill="#00897b"/>
  <rect x="620" y="388" width="145" height="7" fill="#00897b"/>
  <text x="692" y="390" text-anchor="middle" fill="#ffffff" font-size="9" font-weight="600">OnboardingViewModel</text>
  <text x="692" y="410" text-anchor="middle" fill="#00695c" font-size="8">SettingsRepository</text>
  <text x="692" y="424" text-anchor="middle" fill="#00695c" font-size="8">completion gate</text>

  <rect x="780" y="376" width="155" height="56" rx="7" fill="#ffffff" stroke="#00897b" stroke-width="1.2" filter="url(#shadow-sm)"/>
  <rect x="780" y="376" width="155" height="19" rx="7" fill="#00897b"/>
  <rect x="780" y="388" width="155" height="7" fill="#00897b"/>
  <text x="857" y="390" text-anchor="middle" fill="#ffffff" font-size="9" font-weight="600">PrivacyPolicyViewModel</text>
  <text x="857" y="410" text-anchor="middle" fill="#00695c" font-size="8">SettingsRepository</text>
  <text x="857" y="424" text-anchor="middle" fill="#00695c" font-size="8">acceptance gate</text>

  <rect x="950" y="376" width="170" height="56" rx="7" fill="#ffffff" stroke="#00897b" stroke-width="1.2" filter="url(#shadow-sm)"/>
  <rect x="950" y="376" width="170" height="19" rx="7" fill="#00897b"/>
  <rect x="950" y="388" width="170" height="7" fill="#00897b"/>
  <text x="1035" y="390" text-anchor="middle" fill="#ffffff" font-size="8.5" font-weight="600">DevelopSettingsViewModel</text>
  <text x="1035" y="410" text-anchor="middle" fill="#00695c" font-size="8">SettingsRepository</text>
  <text x="1035" y="424" text-anchor="middle" fill="#00695c" font-size="8">invincible mode</text>

  <rect x="1135" y="376" width="130" height="56" rx="7" fill="#ffffff" stroke="#00897b" stroke-width="1.2" filter="url(#shadow-sm)"/>
  <rect x="1135" y="376" width="130" height="19" rx="7" fill="#00897b"/>
  <rect x="1135" y="388" width="130" height="7" fill="#00897b"/>
  <text x="1200" y="390" text-anchor="middle" fill="#ffffff" font-size="8.5" font-weight="600">+5 more VMs</text>
  <text x="1200" y="410" text-anchor="middle" fill="#00695c" font-size="8">AboutAircraft, AboutMe</text>
  <text x="1200" y="424" text-anchor="middle" fill="#00695c" font-size="8">DeviceInfo, QR, RichText</text>

  <!-- ==================== GAME ENGINE LAYER ==================== -->
  <rect x="20" y="460" width="1360" height="430" rx="10" fill="url(#g-engine)" stroke="#38bdf8" stroke-width="1" filter="url(#shadow)" opacity="0.95"/>
  <text x="36" y="480" fill="#0369a1" font-size="13" font-weight="700">GAME ENGINE LAYER</text>
  <text x="220" y="480" fill="#7dd3fc" font-size="10">ui/ — Custom SurfaceView + Canvas (no framework)</text>

  <!-- GameCoreView - Central -->
  <rect x="40" y="494" width="320" height="130" rx="10" fill="url(#g-core)" filter="url(#shadow)"/>
  <text x="200" y="520" text-anchor="middle" fill="#ffffff" font-size="15" font-weight="700">GameCoreView</text>
  <text x="200" y="538" text-anchor="middle" fill="#bfdbfe" font-size="10">SurfaceView + Runnable</text>
  <line x1="60" y1="546" x2="340" y2="546" stroke="#60a5fa" stroke-width="0.5" opacity="0.5"/>
  <text x="200" y="562" text-anchor="middle" fill="#dbeafe" font-size="9">30 FPS Render Loop</text>
  <text x="200" y="576" text-anchor="middle" fill="#dbeafe" font-size="9">Collision Detection (12 checks/frame)</text>
  <text x="200" y="590" text-anchor="middle" fill="#dbeafe" font-size="9">Level Progression, Bosses &amp; Freeze Logic</text>
  <text x="200" y="604" text-anchor="middle" fill="#dbeafe" font-size="9">Touch Input Handling</text>
  <text x="200" y="618" text-anchor="middle" fill="#dbeafe" font-size="9">Shake, Flash, Vignette &amp; Death Effects</text>

  <!-- DrawBaseObject -->
  <rect x="400" y="494" width="200" height="56" rx="8" fill="#ffffff" stroke="#0284c7" stroke-width="1.5" stroke-dasharray="6,3" filter="url(#shadow-sm)"/>
  <text x="500" y="517" text-anchor="middle" fill="#0369a1" font-size="11" font-weight="600" font-style="italic">DrawBaseObject</text>
  <text x="500" y="532" text-anchor="middle" fill="#0ea5e9" font-size="9">abstract: onDraw, updateGame</text>

  <!-- extends arrows from DrawBaseObject to game objects -->
  <!-- Aircraft -->
  <rect x="400" y="570" width="160" height="68" rx="7" fill="#ffffff" stroke="#0ea5e9" stroke-width="1.2" filter="url(#shadow-sm)"/>
  <rect x="400" y="570" width="160" height="19" rx="7" fill="#0ea5e9"/>
  <rect x="400" y="582" width="160" height="7" fill="#0ea5e9"/>
  <text x="480" y="584" text-anchor="middle" fill="#ffffff" font-size="10" font-weight="600">Aircraft</text>
  <text x="480" y="605" text-anchor="middle" fill="#0369a1" font-size="8.5">Player jet sprite</text>
  <text x="480" y="617" text-anchor="middle" fill="#0369a1" font-size="8.5">Auto-fire bullets (4 frames)</text>
  <text x="480" y="629" text-anchor="middle" fill="#0369a1" font-size="8.5">4 selectable jet planes</text>

  <!-- Enemies -->
  <rect x="580" y="570" width="160" height="68" rx="7" fill="#ffffff" stroke="#0ea5e9" stroke-width="1.2" filter="url(#shadow-sm)"/>
  <rect x="580" y="570" width="160" height="19" rx="7" fill="#0ea5e9"/>
  <rect x="580" y="582" width="160" height="7" fill="#0ea5e9"/>
  <text x="660" y="584" text-anchor="middle" fill="#ffffff" font-size="10" font-weight="600">Enemies</text>
  <text x="660" y="605" text-anchor="middle" fill="#0369a1" font-size="8.5">15 sprite types</text>
  <text x="660" y="617" text-anchor="middle" fill="#0369a1" font-size="8.5">Row spawning + Y tracking</text>
  <text x="660" y="629" text-anchor="middle" fill="#0369a1" font-size="8.5">Red-tinted bullets</text>

  <!-- DrawBackground -->
  <rect x="760" y="570" width="160" height="68" rx="7" fill="#ffffff" stroke="#0ea5e9" stroke-width="1.2" filter="url(#shadow-sm)"/>
  <rect x="760" y="570" width="160" height="19" rx="7" fill="#0ea5e9"/>
  <rect x="760" y="582" width="160" height="7" fill="#0ea5e9"/>
  <text x="840" y="584" text-anchor="middle" fill="#ffffff" font-size="10" font-weight="600">DrawBackground</text>
  <text x="840" y="605" text-anchor="middle" fill="#0369a1" font-size="8.5">5 backgrounds, seamless tiling</text>
  <text x="840" y="617" text-anchor="middle" fill="#0369a1" font-size="8.5">Randomized scrolling</text>

  <!-- DrawHeader -->
  <rect x="940" y="570" width="160" height="68" rx="7" fill="#ffffff" stroke="#0ea5e9" stroke-width="1.2" filter="url(#shadow-sm)"/>
  <rect x="940" y="570" width="160" height="19" rx="7" fill="#0ea5e9"/>
  <rect x="940" y="582" width="160" height="7" fill="#0ea5e9"/>
  <text x="1020" y="584" text-anchor="middle" fill="#ffffff" font-size="10" font-weight="600">DrawHeader</text>
  <text x="1020" y="605" text-anchor="middle" fill="#0369a1" font-size="8.5">HUD overlay (two-row layout)</text>
  <text x="1020" y="617" text-anchor="middle" fill="#0369a1" font-size="8.2">Level / Hull / Timer / Score / Boss</text>

  <!-- Extends lines from DrawBaseObject -->
  <line x1="500" y1="496" x2="500" y2="505" stroke="#0284c7" stroke-width="1" stroke-dasharray="3,2"/>
  <line x1="420" y1="505" x2="1020" y2="505" stroke="#0284c7" stroke-width="1" stroke-dasharray="3,2"/>
  <line x1="480" y1="505" x2="480" y2="516" stroke="#0284c7" stroke-width="1" stroke-dasharray="3,2"/>
  <line x1="660" y1="505" x2="660" y2="516" stroke="#0284c7" stroke-width="1" stroke-dasharray="3,2"/>
  <line x1="840" y1="505" x2="840" y2="516" stroke="#0284c7" stroke-width="1" stroke-dasharray="3,2"/>
  <line x1="1020" y1="505" x2="1020" y2="516" stroke="#0284c7" stroke-width="1" stroke-dasharray="3,2"/>
  <text x="508" y="502" fill="#0284c7" font-size="8" font-style="italic">extends</text>

  <!-- BossEnemy -->
  <rect x="400" y="602" width="160" height="68" rx="7" fill="#ffffff" stroke="#f59e0b" stroke-width="1.2" filter="url(#shadow-sm)"/>
  <rect x="400" y="602" width="160" height="19" rx="7" fill="#f59e0b"/>
  <rect x="400" y="614" width="160" height="7" fill="#f59e0b"/>
  <text x="480" y="616" text-anchor="middle" fill="#ffffff" font-size="10" font-weight="600">BossEnemy</text>
  <text x="480" y="636" text-anchor="middle" fill="#92400e" font-size="8.5">End-of-level boss</text>
  <text x="480" y="648" text-anchor="middle" fill="#92400e" font-size="8.5">AI movement + bombs</text>
  <text x="480" y="660" text-anchor="middle" fill="#92400e" font-size="8.5">7 boss sprites</text>

  <!-- RedEnvelopes -->
  <rect x="580" y="602" width="160" height="68" rx="7" fill="#ffffff" stroke="#ef4444" stroke-width="1.2" filter="url(#shadow-sm)"/>
  <rect x="580" y="602" width="160" height="19" rx="7" fill="#ef4444"/>
  <rect x="580" y="614" width="160" height="7" fill="#ef4444"/>
  <text x="660" y="616" text-anchor="middle" fill="#ffffff" font-size="10" font-weight="600">RedEnvelopes</text>
  <text x="660" y="636" text-anchor="middle" fill="#991b1b" font-size="8.5">Collectible power-up</text>
  <text x="660" y="648" text-anchor="middle" fill="#991b1b" font-size="8.5">3 HP → rocket launch</text>
  <text x="660" y="660" text-anchor="middle" fill="#991b1b" font-size="8.5">AoE blast on impact</text>

  <!-- MedicalKits -->
  <rect x="760" y="602" width="160" height="68" rx="7" fill="#ffffff" stroke="#22c55e" stroke-width="1.2" filter="url(#shadow-sm)"/>
  <rect x="760" y="602" width="160" height="19" rx="7" fill="#22c55e"/>
  <rect x="760" y="614" width="160" height="7" fill="#22c55e"/>
  <text x="840" y="616" text-anchor="middle" fill="#ffffff" font-size="10" font-weight="600">MedicalKits</text>
  <text x="840" y="636" text-anchor="middle" fill="#166534" font-size="8.5">Health pickup</text>
  <text x="840" y="648" text-anchor="middle" fill="#166534" font-size="8.5">Restores player HP</text>
  <text x="840" y="660" text-anchor="middle" fill="#166534" font-size="8.5">Drifting spawn</text>

  <!-- ExplosionEffect -->
  <rect x="940" y="602" width="160" height="68" rx="7" fill="#ffffff" stroke="#f97316" stroke-width="1.2" filter="url(#shadow-sm)"/>
  <rect x="940" y="602" width="160" height="19" rx="7" fill="#f97316"/>
  <rect x="940" y="614" width="160" height="7" fill="#f97316"/>
  <text x="1020" y="616" text-anchor="middle" fill="#ffffff" font-size="10" font-weight="600">ExplosionEffect</text>
  <text x="1020" y="636" text-anchor="middle" fill="#9a3412" font-size="8.5">Particle animation</text>
  <text x="1020" y="648" text-anchor="middle" fill="#9a3412" font-size="8.5">Flash → Fireball → Debris</text>
  <text x="1020" y="660" text-anchor="middle" fill="#9a3412" font-size="8.5">→ Smoke phases</text>

  <!-- Composition arrows from GameCoreView -->
  <line x1="360" y1="480" x2="398" y2="467" stroke="#3b82f6" stroke-width="1.5" marker-end="url(#arr-blue)"/>
  <line x1="360" y1="530" x2="398" y2="545" stroke="#3b82f6" stroke-width="1.5" marker-end="url(#arr-blue)"/>
  <line x1="360" y1="560" x2="398" y2="630" stroke="#3b82f6" stroke-width="1.5" marker-end="url(#arr-blue)"/>
  <text x="376" y="454" fill="#3b82f6" font-size="8">owns</text>

  <!-- Game Loop Pipeline -->
  <rect x="40" y="688" width="1320" height="56" rx="8" fill="#ffffff" stroke="#38bdf8" stroke-width="1" filter="url(#shadow-sm)" opacity="0.95"/>
  <text x="56" y="706" fill="#0369a1" font-size="10" font-weight="700">GAME LOOP (30 FPS)</text>

  <!-- Pipeline steps -->
  <rect x="56" y="714" width="80" height="22" rx="4" fill="#e0f2fe" stroke="#7dd3fc" stroke-width="0.8"/>
  <text x="96" y="729" text-anchor="middle" fill="#0369a1" font-size="8" font-weight="600">Shake</text>

  <text x="144" y="728" fill="#94a3b8" font-size="10">→</text>

  <rect x="156" y="714" width="100" height="22" rx="4" fill="#e0f2fe" stroke="#7dd3fc" stroke-width="0.8"/>
  <text x="206" y="729" text-anchor="middle" fill="#0369a1" font-size="8" font-weight="600">Background</text>

  <text x="264" y="728" fill="#94a3b8" font-size="10">→</text>

  <rect x="276" y="714" width="80" height="22" rx="4" fill="#e0f2fe" stroke="#7dd3fc" stroke-width="0.8"/>
  <text x="316" y="729" text-anchor="middle" fill="#0369a1" font-size="8" font-weight="600">HUD</text>

  <text x="364" y="728" fill="#94a3b8" font-size="10">→</text>

  <rect x="376" y="714" width="80" height="22" rx="4" fill="#e0f2fe" stroke="#7dd3fc" stroke-width="0.8"/>
  <text x="416" y="729" text-anchor="middle" fill="#0369a1" font-size="8" font-weight="600">Aircraft</text>

  <text x="464" y="728" fill="#94a3b8" font-size="10">→</text>

  <rect x="476" y="714" width="80" height="22" rx="4" fill="#e0f2fe" stroke="#7dd3fc" stroke-width="0.8"/>
  <text x="516" y="729" text-anchor="middle" fill="#0369a1" font-size="8" font-weight="600">Enemies</text>

  <text x="564" y="728" fill="#94a3b8" font-size="10">→</text>

  <rect x="576" y="714" width="80" height="22" rx="4" fill="#fef3c7" stroke="#fbbf24" stroke-width="0.8"/>
  <text x="616" y="729" text-anchor="middle" fill="#92400e" font-size="8" font-weight="600">Boss</text>

  <text x="664" y="728" fill="#94a3b8" font-size="10">→</text>

  <rect x="676" y="714" width="100" height="22" rx="4" fill="#fee2e2" stroke="#fca5a5" stroke-width="0.8"/>
  <text x="726" y="729" text-anchor="middle" fill="#991b1b" font-size="8" font-weight="600">Power-ups</text>

  <text x="784" y="728" fill="#94a3b8" font-size="10">→</text>

  <rect x="796" y="714" width="110" height="22" rx="4" fill="#fce7f3" stroke="#f9a8d4" stroke-width="0.8"/>
  <text x="851" y="729" text-anchor="middle" fill="#9d174d" font-size="8" font-weight="600">Collision (×12)</text>

  <text x="914" y="728" fill="#94a3b8" font-size="10">→</text>

  <rect x="926" y="714" width="100" height="22" rx="4" fill="#fef3c7" stroke="#fbbf24" stroke-width="0.8"/>
  <text x="976" y="729" text-anchor="middle" fill="#92400e" font-size="8" font-weight="600">Explosions</text>

  <text x="1034" y="728" fill="#94a3b8" font-size="10">→</text>

  <rect x="1046" y="714" width="100" height="22" rx="4" fill="#fee2e2" stroke="#fca5a5" stroke-width="0.8"/>
  <text x="1096" y="729" text-anchor="middle" fill="#991b1b" font-size="8" font-weight="600">Dmg Flash</text>

  <text x="1154" y="728" fill="#94a3b8" font-size="10">→</text>

  <rect x="1166" y="714" width="100" height="22" rx="4" fill="#ecfdf5" stroke="#6ee7b7" stroke-width="0.8"/>
  <text x="1216" y="729" text-anchor="middle" fill="#166534" font-size="8" font-weight="600">Vignette</text>

  <text x="1274" y="728" fill="#94a3b8" font-size="10">→</text>

  <rect x="1286" y="714" width="60" height="22" rx="4" fill="#e0f2fe" stroke="#7dd3fc" stroke-width="0.8"/>
  <text x="1316" y="729" text-anchor="middle" fill="#0369a1" font-size="8" font-weight="600">Restore</text>

  <!-- Level system info box -->
  <rect x="1140" y="440" width="220" height="130" rx="8" fill="#ffffff" stroke="#38bdf8" stroke-width="1" filter="url(#shadow-sm)" opacity="0.95"/>
  <rect x="1140" y="440" width="220" height="22" rx="8" fill="#0284c7"/>
  <rect x="1140" y="454" width="220" height="8" fill="#0284c7"/>
  <text x="1250" y="456" text-anchor="middle" fill="#ffffff" font-size="10" font-weight="600">Level System (10 levels)</text>
  <text x="1156" y="480" fill="#0369a1" font-size="8.5">Duration: 300s → 120s</text>
  <text x="1156" y="494" fill="#0369a1" font-size="8.5">Kills req: 100 → 190</text>
  <text x="1156" y="508" fill="#0369a1" font-size="8.5">Enemies/row: 6 → 15</text>
  <text x="1156" y="522" fill="#0369a1" font-size="8.5">Speed scales: 3 → 16.5</text>
  <text x="1156" y="536" fill="#0369a1" font-size="8.5">Boss HP: 1000 → 1900</text>
  <text x="1156" y="550" fill="#0369a1" font-size="8.5">Score: 100 pts/kill</text>
  <text x="1156" y="564" fill="#0369a1" font-size="8.5">Player HP: 100 (invincible debug override)</text>

  <!-- Collision detection info -->
  <rect x="1140" y="586" width="220" height="112" rx="8" fill="#ffffff" stroke="#f472b6" stroke-width="1" filter="url(#shadow-sm)" opacity="0.95"/>
  <rect x="1140" y="586" width="220" height="22" rx="8" fill="#ec4899"/>
  <rect x="1140" y="600" width="220" height="8" fill="#ec4899"/>
  <text x="1250" y="602" text-anchor="middle" fill="#ffffff" font-size="10" font-weight="600">Collision Checks (×12)</text>
  <text x="1156" y="624" fill="#9d174d" font-size="8">1. Player vs Enemies   7. Boss bombs</text>
  <text x="1156" y="636" fill="#9d174d" font-size="8">2. Enemy bullets       8. Bullets vs Boss</text>
  <text x="1156" y="648" fill="#9d174d" font-size="8">3. Player bullets      9. Rockets vs Boss</text>
  <text x="1156" y="660" fill="#9d174d" font-size="8">4. Bullets vs RedEnv  10. Medical kits</text>
  <text x="1156" y="672" fill="#9d174d" font-size="8">5. Rockets vs Enemies 11. Shields</text>
  <text x="1156" y="684" fill="#9d174d" font-size="8">6. Player vs Boss     12. Time freezes</text>

  <!-- Power-up systems info -->
  <rect x="1140" y="756" width="220" height="70" rx="8" fill="#ffffff" stroke="#22c55e" stroke-width="1" filter="url(#shadow-sm)" opacity="0.95"/>
  <rect x="1140" y="756" width="220" height="22" rx="8" fill="#16a34a"/>
  <rect x="1140" y="770" width="220" height="8" fill="#16a34a"/>
  <text x="1250" y="772" text-anchor="middle" fill="#ffffff" font-size="10" font-weight="600">Support Power-ups</text>
  <text x="1156" y="794" fill="#166534" font-size="8">Shields · MedicalKits · TimeFreezes</text>
  <text x="1156" y="808" fill="#166534" font-size="8">RedEnvelopes trigger rockets + AoE</text>
  <text x="1156" y="822" fill="#166534" font-size="8">Spawn timing and odds scale by level</text>

  <!-- ==================== SUPPORTING LAYERS ==================== -->

  <!-- Data Layer -->
  <rect x="20" y="852" width="460" height="170" rx="10" fill="url(#g-data)" stroke="#fb923c" stroke-width="1" filter="url(#shadow)" opacity="0.95"/>
  <text x="36" y="872" fill="#c2410c" font-size="13" font-weight="700">DATA LAYER</text>
  <text x="155" y="872" fill="#fdba74" font-size="10">data/</text>

  <!-- AppDatabase -->
  <rect x="36" y="884" width="200" height="56" rx="7" fill="#ffffff" stroke="#fb923c" stroke-width="1.2" filter="url(#shadow-sm)"/>
  <rect x="36" y="884" width="200" height="19" rx="7" fill="#f97316"/>
  <rect x="36" y="896" width="200" height="7" fill="#f97316"/>
  <text x="136" y="898" text-anchor="middle" fill="#ffffff" font-size="10" font-weight="600">AppDatabase (Room)</text>
  <text x="136" y="919" text-anchor="middle" fill="#c2410c" font-size="8.5">v2030 · RoomDatabase</text>
  <text x="136" y="932" text-anchor="middle" fill="#c2410c" font-size="8.5">2027→2030 migrations applied</text>

  <!-- PlayerGameDataDao -->
  <rect x="256" y="884" width="206" height="56" rx="7" fill="#ffffff" stroke="#fb923c" stroke-width="1.2" filter="url(#shadow-sm)"/>
  <rect x="256" y="884" width="206" height="19" rx="7" fill="#ea580c"/>
  <rect x="256" y="896" width="206" height="7" fill="#ea580c"/>
  <text x="359" y="898" text-anchor="middle" fill="#ffffff" font-size="10" font-weight="600">PlayerGameDataDao</text>
  <text x="359" y="919" text-anchor="middle" fill="#c2410c" font-size="8.5">insert / delete / query</text>
  <text x="359" y="932" text-anchor="middle" fill="#c2410c" font-size="8.5">Leaderboard by score DESC</text>

  <!-- Data models row -->
  <rect x="36" y="952" width="100" height="38" rx="6" fill="#ffffff" stroke="#fdba74" stroke-width="1" filter="url(#shadow-sm)"/>
  <text x="86" y="972" text-anchor="middle" fill="#c2410c" font-size="8.5" font-weight="600">PlayerAircraft</text>
  <text x="86" y="984" text-anchor="middle" fill="#ea580c" font-size="7.5">HP, stats, invincible-aware</text>

  <rect x="148" y="952" width="100" height="38" rx="6" fill="#ffffff" stroke="#fdba74" stroke-width="1" filter="url(#shadow-sm)"/>
  <text x="198" y="972" text-anchor="middle" fill="#c2410c" font-size="9" font-weight="600">EnemyState</text>
  <text x="198" y="984" text-anchor="middle" fill="#ea580c" font-size="7.5">pos, bullets</text>

  <rect x="260" y="952" width="100" height="38" rx="6" fill="#ffffff" stroke="#fdba74" stroke-width="1" filter="url(#shadow-sm)"/>
  <text x="310" y="972" text-anchor="middle" fill="#c2410c" font-size="8.5" font-weight="600">BossState</text>
  <text x="310" y="984" text-anchor="middle" fill="#ea580c" font-size="7.5">HP, bombs</text>

  <rect x="372" y="952" width="90" height="38" rx="6" fill="#ffffff" stroke="#fdba74" stroke-width="1" filter="url(#shadow-sm)"/>
  <text x="417" y="972" text-anchor="middle" fill="#c2410c" font-size="8.2" font-weight="600">Power-up States</text>
  <text x="417" y="984" text-anchor="middle" fill="#ea580c" font-size="7.1">rocket · shield · freeze · medkit</text>

  <!-- AircraftConstants -->
  <rect x="36" y="1000" width="200" height="38" rx="6" fill="#ffffff" stroke="#fdba74" stroke-width="1" filter="url(#shadow-sm)"/>
  <text x="136" y="1018" text-anchor="middle" fill="#c2410c" font-size="8.5" font-weight="600">AircraftConstants</text>
  <text x="136" y="1030" text-anchor="middle" fill="#ea580c" font-size="7.5">HudLabels · HudColors · Urls · Intents</text>

  <!-- Arrow from AppDatabase to DAO -->
  <line x1="236" y1="912" x2="254" y2="912" stroke="#ea580c" stroke-width="1.2" marker-end="url(#arr)"/>

  <!-- Service Layer -->
  <rect x="500" y="852" width="340" height="170" rx="10" fill="url(#g-svc)" stroke="#f9a8d4" stroke-width="1" filter="url(#shadow)" opacity="0.95"/>
  <text x="516" y="872" fill="#be185d" font-size="13" font-weight="700">SERVICE LAYER</text>
  <text x="650" y="872" fill="#f9a8d4" font-size="10">service/</text>

  <rect x="516" y="884" width="306" height="56" rx="7" fill="#ffffff" stroke="#f9a8d4" stroke-width="1.2" filter="url(#shadow-sm)"/>
  <rect x="516" y="884" width="306" height="19" rx="7" fill="#ec4899"/>
  <rect x="516" y="896" width="306" height="7" fill="#ec4899"/>
  <text x="669" y="898" text-anchor="middle" fill="#ffffff" font-size="10" font-weight="600">MusicService (Bound)</text>
  <text x="669" y="919" text-anchor="middle" fill="#be185d" font-size="8.5">MediaPlayer — looping BGM</text>
  <text x="669" y="932" text-anchor="middle" fill="#be185d" font-size="8.5">SoundPool — 4 combat cues + prefs listener</text>

  <rect x="516" y="954" width="145" height="38" rx="6" fill="#ffffff" stroke="#f9a8d4" stroke-width="1" filter="url(#shadow-sm)"/>
  <text x="588" y="974" text-anchor="middle" fill="#be185d" font-size="9" font-weight="600">SharedPreferences</text>
  <text x="588" y="986" text-anchor="middle" fill="#db2777" font-size="7.5">Sound, difficulty, debug flags</text>

  <rect x="673" y="954" width="149" height="38" rx="6" fill="#ffffff" stroke="#f9a8d4" stroke-width="1" filter="url(#shadow-sm)"/>
  <text x="747" y="974" text-anchor="middle" fill="#be185d" font-size="9" font-weight="600">@Synchronized</text>
  <text x="747" y="986" text-anchor="middle" fill="#db2777" font-size="7.5">Thread-safe playback</text>

  <!-- Common / Providers Layer -->
  <rect x="860" y="852" width="260" height="80" rx="10" fill="url(#g-vm)" stroke="#22d3ee" stroke-width="1" filter="url(#shadow)" opacity="0.95"/>
  <text x="876" y="872" fill="#0e7490" font-size="13" font-weight="700">COMMON / PROVIDERS</text>
  <text x="995" y="872" fill="#67e8f9" font-size="10">common/ + providers/</text>

  <rect x="876" y="884" width="226" height="40" rx="7" fill="#ffffff" stroke="#22d3ee" stroke-width="1.2" filter="url(#shadow-sm)"/>
  <text x="989" y="901" text-anchor="middle" fill="#0e7490" font-size="8.7" font-weight="600">SettingsRepository · DatabaseProvider</text>
  <text x="989" y="914" text-anchor="middle" fill="#0e7490" font-size="8.4" font-weight="600">GameStateManager · AircraftApplication</text>

  <!-- Utils Layer -->
  <rect x="860" y="948" width="260" height="74" rx="10" fill="url(#g-util)" stroke="#86efac" stroke-width="1" filter="url(#shadow)" opacity="0.95"/>
  <text x="876" y="968" fill="#166534" font-size="13" font-weight="700">UTILITIES</text>
  <text x="970" y="968" fill="#86efac" font-size="10">utils/</text>

  <text x="876" y="988" fill="#166534" font-size="9">ScreenUtils · BitmapUtils</text>
  <text x="876" y="1003" fill="#166534" font-size="9">GameHudFormatter · HallOfHeroesNameUtils</text>

  <!-- ==================== THREADING DIAGRAM ==================== -->
  <rect x="20" y="1038" width="1360" height="78" rx="10" fill="#ffffff" stroke="#94a3b8" stroke-width="1" filter="url(#shadow)" opacity="0.95"/>
  <text x="36" y="1058" fill="#334155" font-size="13" font-weight="700">THREADING MODEL</text>

  <!-- Main Thread -->
  <rect x="40" y="1066" width="360" height="38" rx="6" fill="#f3e8ff" stroke="#c084fc" stroke-width="1"/>
  <text x="220" y="1082" text-anchor="middle" fill="#7c3aed" font-size="10" font-weight="600">Main Thread</text>
  <text x="220" y="1096" text-anchor="middle" fill="#a78bfa" font-size="8">Activity lifecycle · UI dialogs · Service binding · Room DB (lifecycleScope)</text>

  <!-- Game Thread -->
  <rect x="420" y="1066" width="460" height="38" rx="6" fill="#e0f2fe" stroke="#38bdf8" stroke-width="1"/>
  <text x="650" y="1082" text-anchor="middle" fill="#0369a1" font-size="10" font-weight="600">Game Thread (Dedicated)</text>
  <text x="650" y="1096" text-anchor="middle" fill="#0ea5e9" font-size="8">SurfaceView render loop · Canvas drawing · Collision · Level timer · 30 FPS synchronized</text>

  <!-- Service Thread -->
  <rect x="900" y="1066" width="280" height="38" rx="6" fill="#fce7f3" stroke="#f9a8d4" stroke-width="1"/>
  <text x="1040" y="1082" text-anchor="middle" fill="#be185d" font-size="10" font-weight="600">Service Thread</text>
  <text x="1040" y="1096" text-anchor="middle" fill="#db2777" font-size="8">MusicService · @Synchronized playback · MediaPlayer + SoundPool</text>

  <!-- Vertical flow arrows between layers -->
  <!-- Presentation → ViewModel -->
  <line x1="370" y1="304" x2="370" y2="344" stroke="#64748b" stroke-width="1.5" marker-end="url(#arr)"/>
  <text x="378" y="327" fill="#64748b" font-size="8">delegates</text>

  <!-- ViewModel → Game Engine -->
  <line x1="370" y1="446" x2="370" y2="458" stroke="#64748b" stroke-width="1.5" marker-end="url(#arr)"/>

  <!-- Presentation → Data Layer (via ViewModel) -->
  <path d="M610,304 L610,320 L250,320 L250,850" stroke="#64748b" stroke-width="1" stroke-dasharray="5,3" fill="none" marker-end="url(#arr)"/>

  <!-- Game Engine → Service -->
  <path d="M200,760 L200,790 L669,790 L669,850" stroke="#64748b" stroke-width="1" stroke-dasharray="5,3" fill="none" marker-end="url(#arr)"/>
  <text x="420" y="786" fill="#64748b" font-size="8">audio playback</text>

  <!-- ViewModel → Common / Providers -->
  <path d="M460,446 L460,460 L460,800 L989,800 L989,850" stroke="#64748b" stroke-width="1" stroke-dasharray="5,3" fill="none" marker-end="url(#arr)"/>
  <text x="824" y="796" fill="#64748b" font-size="8">prefs + app state</text>

  <!-- ==================== GAME ASSETS ==================== -->
  <rect x="20" y="1130" width="1360" height="56" rx="10" fill="#f8fafc" stroke="#cbd5e1" stroke-width="1" filter="url(#shadow)" opacity="0.95"/>
  <text x="36" y="1150" fill="#334155" font-size="13" font-weight="700">GAME ASSETS</text>

  <rect x="40" y="1160" width="130" height="18" rx="4" fill="#e0f2fe" stroke="#7dd3fc" stroke-width="0.6"/>
  <text x="105" y="1173" text-anchor="middle" fill="#0369a1" font-size="8.5" font-weight="600">15 enemy sprites</text>

  <rect x="180" y="1160" width="110" height="18" rx="4" fill="#fef3c7" stroke="#fbbf24" stroke-width="0.6"/>
  <text x="235" y="1173" text-anchor="middle" fill="#92400e" font-size="8.5" font-weight="600">7 boss sprites</text>

  <rect x="300" y="1160" width="120" height="18" rx="4" fill="#fce7f3" stroke="#f9a8d4" stroke-width="0.6"/>
  <text x="360" y="1173" text-anchor="middle" fill="#be185d" font-size="8.5" font-weight="600">3 missile sprites</text>

  <rect x="430" y="1160" width="100" height="18" rx="4" fill="#f3e8ff" stroke="#c084fc" stroke-width="0.6"/>
  <text x="480" y="1173" text-anchor="middle" fill="#7c3aed" font-size="8.5" font-weight="600">4 jet planes</text>

  <rect x="540" y="1160" width="130" height="18" rx="4" fill="#fee2e2" stroke="#fca5a5" stroke-width="0.6"/>
  <text x="605" y="1173" text-anchor="middle" fill="#991b1b" font-size="8.5" font-weight="600">2 red box sprites</text>

  <rect x="680" y="1160" width="100" height="18" rx="4" fill="#ecfdf5" stroke="#6ee7b7" stroke-width="0.6"/>
  <text x="730" y="1173" text-anchor="middle" fill="#166534" font-size="8.5" font-weight="600">1 rocket sprite</text>

  <rect x="790" y="1160" width="100" height="18" rx="4" fill="#fff7ed" stroke="#fdba74" stroke-width="0.6"/>
  <text x="840" y="1173" text-anchor="middle" fill="#c2410c" font-size="8.5" font-weight="600">6 audio files</text>

  <rect x="900" y="1160" width="100" height="18" rx="4" fill="#f0f9ff" stroke="#93c5fd" stroke-width="0.6"/>
  <text x="950" y="1173" text-anchor="middle" fill="#1e40af" font-size="8.5" font-weight="600">3 backgrounds</text>

  <rect x="1010" y="1160" width="110" height="18" rx="4" fill="#f5f3ff" stroke="#c4b5fd" stroke-width="0.6"/>
  <text x="1065" y="1173" text-anchor="middle" fill="#5b21b6" font-size="8.5" font-weight="600">EN + ZH locale</text>

  <!-- ==================== LEGEND ==================== -->
  <rect x="20" y="1198" width="1360" height="40" rx="8" fill="#f1f5f9" stroke="#e2e8f0" stroke-width="0.8"/>
  <text x="40" y="1222" fill="#475569" font-size="10" font-weight="600">LEGEND:</text>

  <line x1="100" y1="1218" x2="130" y2="1218" stroke="#64748b" stroke-width="1.5" marker-end="url(#arr)"/>
  <text x="138" y="1222" fill="#64748b" font-size="9">Direct dependency</text>

  <line x1="256" y1="1218" x2="286" y2="1218" stroke="#64748b" stroke-width="1" stroke-dasharray="5,3" marker-end="url(#arr)"/>
  <text x="294" y="1222" fill="#64748b" font-size="9">Indirect / async</text>

  <line x1="402" y1="1218" x2="432" y2="1218" stroke="#0284c7" stroke-width="1" stroke-dasharray="3,2"/>
  <text x="440" y="1222" fill="#64748b" font-size="9">Inheritance</text>

  <rect x="520" y="1210" width="14" height="14" rx="3" fill="url(#g-pres)" stroke="#c084fc" stroke-width="0.8"/>
  <text x="542" y="1222" fill="#64748b" font-size="9">Presentation</text>

  <rect x="616" y="1210" width="14" height="14" rx="3" fill="url(#g-vm)" stroke="#00897b" stroke-width="0.8"/>
  <text x="638" y="1222" fill="#64748b" font-size="9">ViewModel</text>

  <rect x="704" y="1210" width="14" height="14" rx="3" fill="url(#g-engine)" stroke="#38bdf8" stroke-width="0.8"/>
  <text x="726" y="1222" fill="#64748b" font-size="9">Game Engine</text>

  <rect x="810" y="1210" width="14" height="14" rx="3" fill="url(#g-data)" stroke="#fb923c" stroke-width="0.8"/>
  <text x="832" y="1222" fill="#64748b" font-size="9">Data</text>

  <rect x="866" y="1210" width="14" height="14" rx="3" fill="url(#g-svc)" stroke="#f9a8d4" stroke-width="0.8"/>
  <text x="888" y="1222" fill="#64748b" font-size="9">Service</text>

  <rect x="946" y="1210" width="14" height="14" rx="3" fill="url(#g-util)" stroke="#86efac" stroke-width="0.8"/>
  <text x="968" y="1222" fill="#64748b" font-size="9">Utilities</text>

  <text x="1350" y="1222" text-anchor="end" fill="#94a3b8" font-size="8.5">Kotlin · Android SDK 37 · AGP 9.1.1</text>
</svg>
